HIERARCHY
ROOT Hips
{
	OFFSET 0.00000 0.00000 0.00000
	CHANNELS 6 Xposition Yposition Zposition Zrotation Yrotation Xrotation 
	JOINT LHipJoint
	{
		OFFSET 0 0 0
		CHANNELS 3 Zrotation Yrotation Xrotation
		JOINT LeftUpLeg
		{
			OFFSET 1.29432 -1.88279 0.59910
			CHANNELS 3 Zrotation Yrotation Xrotation
			JOINT LeftLeg
			{
				OFFSET 2.63039 -7.22694 0.00000
				CHANNELS 3 Zrotation Yrotation Xrotation
				JOINT LeftFoot
				{
					OFFSET 2.70674 -7.43672 0.00000
					CHANNELS 3 Zrotation Yrotation Xrotation
					JOINT LeftToeBase
					{
						OFFSET 0.15066 -0.41394 2.09027
						CHANNELS 3 Zrotation Yrotation Xrotation
						End Site
						{
							OFFSET 0.00000 -0.00000 1.07518
						}
					}
				}
			}
		}
	}
	JOINT RHipJoint
	{
		OFFSET 0 0 0
		CHANNELS 3 Zrotation Yrotation Xrotation
		JOINT RightUpLeg
		{
			OFFSET -1.37068 -1.88279 0.59910
			CHANNELS 3 Zrotation Yrotation Xrotation
			JOINT RightLeg
			{
				OFFSET -2.57023 -7.06166 0.00000
				CHANNELS 3 Zrotation Yrotation Xrotation
				JOINT RightFoot
				{
					OFFSET -2.76461 -7.59570 0.00000
					CHANNELS 3 Zrotation Yrotation Xrotation
					JOINT RightToeBase
					{
						OFFSET -0.24175 -0.64785 2.19719
						CHANNELS 3 Zrotation Yrotation Xrotation
						End Site
						{
							OFFSET -0.00000 -0.00000 1.14803
						}
					}
				}
			}
		}
	}
	JOINT LowerBack
	{
		OFFSET 0 0 0
		CHANNELS 3 Zrotation Yrotation Xrotation
		JOINT Spine
		{
			OFFSET -0.03138 2.03983 -0.23106
			CHANNELS 3 Zrotation Yrotation Xrotation
			JOINT Spine1
			{
				OFFSET -0.00325 2.06238 -0.06878
				CHANNELS 3 Zrotation Yrotation Xrotation
				JOINT Neck
				{
					OFFSET 0 0 0
					CHANNELS 3 Zrotation Yrotation Xrotation
					JOINT Neck1
					{
						OFFSET -0.00002 1.75318 0.18090
						CHANNELS 3 Zrotation Yrotation Xrotation
						JOINT Head
						{
							OFFSET 0.08806 1.75856 -0.25387
							CHANNELS 3 Zrotation Yrotation Xrotation
							End Site
							{
								OFFSET 0.02554 1.78597 -0.10684
							}
						}
					}
				}
				JOINT LeftShoulder
				{
					OFFSET 0 0 0
					CHANNELS 3 Zrotation Yrotation Xrotation
					JOINT LeftArm
					{
						OFFSET 3.09657 1.33597 -0.04414
						CHANNELS 3 Zrotation Yrotation Xrotation
						JOINT LeftForeArm
						{
							OFFSET 5.34298 -0.00000 -0.00000
							CHANNELS 3 Zrotation Yrotation Xrotation
							JOINT LeftHand
							{
								OFFSET 3.67262 -0.00000 -0.00000
								CHANNELS 3 Zrotation Yrotation Xrotation
								JOINT LeftFingerBase
								{
									OFFSET 0 0 0
									CHANNELS 3 Zrotation Yrotation Xrotation
									JOINT LeftHandIndex1
									{
										OFFSET 0.59930 -0.00000 -0.00000
										CHANNELS 3 Zrotation Yrotation Xrotation
										End Site
										{
											OFFSET 0.48317 -0.00000 -0.00000
										}
									}
								}
								JOINT LThumb
								{
									OFFSET 0 0 0
									CHANNELS 3 Zrotation Yrotation Xrotation
									End Site
									{
										OFFSET 0.49055 -0.00000 0.49055
									}
								}
							}
						}
					}
				}
				JOINT RightShoulder
				{
					OFFSET 0 0 0
					CHANNELS 3 Zrotation Yrotation Xrotation
					JOINT RightArm
					{
						OFFSET -3.16460 1.32273 -0.23382
						CHANNELS 3 Zrotation Yrotation Xrotation
						JOINT RightForeArm
						{
							OFFSET -5.54967 -0.01834 0.03348
							CHANNELS 3 Zrotation Yrotation Xrotation
							JOINT RightHand
							{
								OFFSET -3.69401 -0.00000 0.00000
								CHANNELS 3 Zrotation Yrotation Xrotation
								JOINT RightFingerBase
								{
									OFFSET 0 0 0
									CHANNELS 3 Zrotation Yrotation Xrotation
									JOINT RightHandIndex1
									{
										OFFSET -0.63811 -0.00000 0.00000
										CHANNELS 3 Zrotation Yrotation Xrotation
										End Site
										{
											OFFSET -0.51446 -0.00000 0.00000
										}
									}
								}
								JOINT RThumb
								{
									OFFSET 0 0 0
									CHANNELS 3 Zrotation Yrotation Xrotation
									End Site
									{
										OFFSET -0.52232 -0.00000 0.52232
									}
								}
							}
						}
					}
				}
			}
		}
	}
}
MOTION
Frames: 15
Frame Time: .0083333
9.3122 18.1048 -15.8741 0 0 0 0 0 0 -21 0 0 0 0 0 0 0 0 0 0 0 0 0 0 21 0 0 0 0 0 0 0 0 0 0 0 0 0 0 0 0 0 0 0 0 0 0 -16 0 0 21 0 0 11 0 0 0 -8 0 0 0 0 0 0 0 0 0 0 0 0 0 0 0 0 0 0 0 0 8 0 0 0 0 0 0 0 0 0 0 0 0 0 0 0 0 0
9.3122 18.1048 -15.8741 6.9122 -1.9277 3.4057 0.0000 0.0000 0.0000 -29.8845 2.2657 -1.9450 0.9358 6.1620 17.2551 0.3989 -6.7867 -11.4992 0.0259 -1.0387 -2.8553 0.0000 0.0000 0.0000 8.9379 14.5598 -26.9224 -3.8492 -11.9570 35.5800 -0.2435 -7.6901 -15.1193 -0.7244 5.4385 -15.1635 -8.7601 -1.4241 2.3928 -2.6364 -2.0564 1.5994 2.2102 -1.0856 0.5270 -1.7373 -0.6869 -9.0100 2.8734 -1.2319 18.9443 1.1145 -0.4642 7.3159 0.0000 -0.0000 0.0000 -79.4500 -19.0917 21.0912 21.0312 -31.8648 -6.0664 -0.0000 -0.0000 7.7455 0.9883 39.8045 0.6327 -7.1250 0.0000 -0.0000 -43.7154 64.5197 -22.6561 0.0000 -0.0000 0.0000 82.2306 1.4341 17.2717 -23.4361 34.5622 -7.3842 0.0000 0.0000 7.4810 -25.5944 23.8791 -10.9736 7.1250 -0.0000 -0.0000 2.2567 -3.8523 2.1017
9.3038 18.1392 -15.7514 6.8154 -1.9446 3.5826 0.0000 0.0000 0.0000 -29.7150 3.1039 -1.2447 0.7852 5.6570 15.7923 0.3361 -6.5004 -10.6050 0.0545 -1.5064 -4.1434 0.0000 0.0000 0.0000 8.7719 15.5908 -26.8297 -3.3324 -11.2146 33.0071 -0.1467 -7.9881 -14.0052 -0.3393 3.7429 -10.3545 -8.7518 -1.5175 2.1042 -2.5087 -2.1390 1.7121 2.3264 -1.1411 0.8196 -1.7960 -0.5903 -9.7137 2.9094 -1.0912 19.1138 1.1490 -0.3915 7.4943 -0.0000 -0.0000 0.0000 -79.1524 -20.4146 21.1232 21.4947 -32.4012 -6.3129 -0.0000 -0.0000 7.8331 7.4854 35.8792 4.4035 -7.1250 0.0000 -0.0000 -32.0945 63.2386 -14.9841 -0.0000 -0.0000 0.0000 81.7658 2.4213 17.9545 -24.0253 35.1910 -7.7211 0.0000 0.0000 7.2546 -25.8392 23.3460 -10.8633 7.1250 -0.0000 -0.0000 2.0383 -4.3728 1.8782
9.3001 18.1609 -15.6305 7.0239 -1.7885 3.6286 0.0000 0.0000 0.0000 -29.8839 3.8301 -0.2930 0.6543 5.1740 14.4054 0.2970 -6.5898 -10.0721 0.1023 -2.0623 -5.6780 0.0000 0.0000 0.0000 8.3649 16.1511 -26.5726 -2.9108 -10.5492 30.7742 -0.1134 -8.0216 -13.5094 -0.0812 1.8387 -5.0600 -8.9121 -1.5302 1.9070 -2.5789 -2.1361 1.6916 2.3362 -1.1436 0.9126 -1.6258 -0.6090 -9.4730 2.9211 -1.1462 18.8902 1.1183 -0.4074 7.3787 0.0000 -0.0000 0.0000 -78.6014 -21.3380 22.4967 21.8775 -32.8384 -6.5193 -0.0000 -0.0000 6.0068 -3.9079 41.2616 -2.5795 -7.1250 0.0000 -0.0000 -50.4641 64.1459 -26.5497 0.0000 -0.0000 0.0000 81.5290 2.8058 18.1828 -24.6679 35.8626 -8.0945 0.0000 0.0000 7.1553 -26.2478 23.5799 -11.1585 7.1250 -0.0000 -0.0000 1.8164 -4.0411 1.6847
9.3027 18.1742 -15.5106 7.3521 -1.4651 3.5988 0.0000 0.0000 0.0000 -30.1892 4.2769 0.8452 0.5398 4.7075 13.0761 0.2540 -6.5606 -9.4295 0.1520 -2.5123 -6.9239 0.0000 0.0000 0.0000 7.8529 16.4718 -26.2929 -2.4805 -9.8025 28.3393 -0.0556 -8.7319 -13.4379 -0.0199 0.9111 -2.5043 -9.2820 -1.9821 1.9906 -2.3598 -2.7694 1.4500 2.7751 -1.4493 0.7119 -2.4649 -0.3412 -8.7493 2.9721 -0.6524 18.5700 1.3172 -0.2324 7.1348 0.0000 0.0000 0.0000 -78.2853 -21.7499 22.1613 22.4526 -33.4847 -6.8338 -0.0000 -0.0000 6.9150 3.4928 37.2299 2.1148 -7.1250 0.0000 -0.0000 -37.7632 63.2716 -18.0290 0.0000 0.0000 0.0000 80.5655 3.2985 19.7476 -25.1703 36.3775 -8.3907 0.0000 0.0000 6.6589 -26.4686 23.8391 -11.3780 7.1250 -0.0000 -0.0000 1.7146 -3.7185 1.6005
9.3034 18.1859 -15.3933 7.5279 -1.1564 3.7056 0.0000 0.0000 0.0000 -30.3066 4.6628 1.7911 0.4334 4.2245 11.7092 0.1926 -6.5820 -8.4641 0.1568 -2.5517 -7.0331 0.0000 0.0000 0.0000 7.4477 16.8722 -26.2215 -2.1078 -9.0871 26.0681 -0.0302 -9.3687 -13.8630 -0.0210 -0.9348 2.5695 -9.2072 -1.8180 2.0319 -2.5926 -2.5327 1.7407 2.4876 -1.3465 0.9496 -1.9750 -0.6708 -10.3967 2.9909 -1.1737 19.0139 1.1969 -0.4306 7.5878 -0.0000 0.0000 0.0000 -77.3073 -23.8302 24.0955 22.7451 -33.8089 -6.9960 -0.0000 -0.0000 6.0775 8.9174 34.5272 5.0822 -7.1250 0.0000 -0.0000 -29.1165 62.4691 -12.9390 -0.0000 0.0000 0.0000 80.6623 4.5154 19.1549 -25.8100 37.0205 -8.7730 0.0000 0.0000 6.4649 -26.2664 23.7250 -11.2305 7.1250 -0.0000 -0.0000 1.8238 -3.8820 1.6970
9.2992 18.1972 -15.2703 7.3889 -0.9541 3.8219 0.0000 0.0000 0.0000 -30.0411 5.1424 2.7335 0.3349 3.7191 10.2878 0.1456 -6.7255 -7.7147 0.0712 -1.7220 -4.7379 0.0000 0.0000 0.0000 7.3760 17.5556 -26.0420 -1.7778 -8.3870 23.8958 0.0489 -10.0009 -13.4135 -0.0014 0.2442 -0.6711 -9.0546 -1.6910 1.7924 -2.6089 -2.3459 1.5710 2.3825 -1.2445 0.8791 -1.5383 -0.8197 -9.8922 2.9638 -1.4590 19.0234 1.0888 -0.5421 7.5051 0.0000 -0.0000 0.0000 -76.7283 -24.5633 25.8324 23.2083 -34.3158 -7.2554 -0.0000 -0.0000 5.2132 -0.5772 15.4388 -0.1537 -7.1250 0.0000 -0.0000 -25.5524 43.7963 0.8158 0.0000 -0.0000 0.0000 80.5229 4.6311 18.8839 -26.5377 37.7347 -9.2148 0.0000 0.0000 6.4976 -26.1235 24.3437 -11.4283 7.1250 -0.0000 -0.0000 1.9931 -3.2497 1.8781
9.2912 18.2021 -15.1396 7.3548 -0.7927 3.8650 0.0000 0.0000 0.0000 -29.8802 5.4100 3.9515 0.2435 3.1756 8.7680 0.1209 -6.5625 -7.2019 0.0329 -1.1707 -3.2187 0.0000 0.0000 0.0000 7.1844 18.3087 -25.7992 -1.5043 -7.7467 21.9472 0.1421 -10.6418 -12.7119 -0.0881 1.9142 -5.2687 -9.0076 -1.7059 1.4734 -2.6183 -2.3112 1.7850 2.3304 -1.2472 1.2752 -1.3463 -0.9043 -10.3324 2.9518 -1.6013 18.9189 1.0378 -0.5940 7.5522 -0.0000 -0.0000 0.0000 -76.2229 -26.1248 26.3339 23.4532 -34.5807 -7.3939 -0.0000 -0.0000 5.0563 2.4189 21.7106 0.8953 -7.1250 0.0000 -0.0000 -25.8526 49.8380 -3.2784 -0.0000 -0.0000 0.0000 80.2450 5.6071 18.9962 -27.2456 38.4124 -9.6514 0.0000 0.0000 6.3406 -26.1249 24.9999 -11.7096 7.1250 -0.0000 -0.0000 2.0809 -2.5497 1.9876
9.2889 18.2045 -15.0103 7.3760 -0.5022 3.8523 0.0000 0.0000 0.0000 -29.8040 5.6510 5.4487 0.1502 2.4973 6.8821 0.0977 -5.7491 -6.4114 0.0704 -1.7117 -4.7097 0.0000 0.0000 0.0000 6.9251 18.8500 -25.5220 -1.2780 -7.1643 20.2030 0.1857 -11.2676 -12.9632 -0.3445 3.7713 -10.4343 -8.8749 -1.7957 1.4121 -2.6646 -2.4297 1.6828 2.2091 -1.2990 1.2077 -1.2192 -0.9077 -9.9921 2.9919 -1.6376 18.8512 1.0269 -0.6023 7.4692 0.0000 0.0000 0.0000 -75.7461 -26.9638 26.9636 23.8445 -34.9994 -7.6172 -0.0000 -0.0000 4.5808 11.9694 32.7381 6.5403 -7.1250 0.0000 -0.0000 -24.1494 61.6646 -10.1190 0.0000 0.0000 0.0000 80.0026 5.8804 19.3667 -28.1394 39.2443 -10.2118 0.0000 0.0000 6.1650 -26.1286 24.8457 -11.6457 7.1250 -0.0000 -0.0000 2.0576 -2.7131 1.9592
9.2875 18.2063 -14.8818 7.4349 -0.0726 3.8258 0.0000 0.0000 0.0000 -29.7665 5.8345 7.1815 0.0682 1.6845 4.6344 0.0660 -4.8434 -5.3170 0.1422 -2.4299 -6.6953 0.0000 0.0000 0.0000 6.6401 19.3522 -25.2181 -1.1043 -6.6770 18.7618 0.2122 -12.0313 -13.8423 -0.3953 4.0368 -11.1801 -8.8717 -1.9940 1.3979 -2.5758 -2.7110 1.4213 2.3031 -1.4242 0.9770 -1.4816 -0.8321 -9.2311 3.1738 -1.5308 18.9034 1.1422 -0.5604 7.3503 -0.0000 -0.0000 0.0000 -75.4473 -27.3791 27.5803 24.1963 -35.3711 -7.8199 -0.0000 -0.0000 3.6921 12.6640 31.7007 6.7340 -7.1250 0.0000 -0.0000 -22.4971 60.8939 -8.9730 -0.0000 -0.0000 0.0000 79.5237 6.1237 20.0551 -28.7240 39.7743 -10.5837 0.0000 0.0000 5.9593 -26.4312 24.9690 -11.8506 7.1250 -0.0000 -0.0000 1.8909 -2.5181 1.8070
9.2786 18.2142 -14.7514 7.5911 0.2230 3.7274 0.0000 0.0000 0.0000 -29.7693 6.3126 9.3457 0.0075 0.5599 1.5386 0.0199 -4.2982 -3.7305 0.0995 -2.0339 -5.5994 0.0000 0.0000 0.0000 6.3672 19.8612 -24.8345 -0.9696 -6.2690 17.5669 0.1742 -12.2145 -14.8202 -0.2854 3.4360 -9.4951 -9.1030 -2.1331 1.3422 -2.4692 -2.8694 1.7180 2.5276 -1.5282 1.3522 -1.8487 -0.8776 -10.0840 3.3225 -1.5517 18.9794 1.2489 -0.5741 7.5323 0.0000 0.0000 0.0000 -74.9626 -29.0529 27.8503 24.3263 -35.5074 -7.8953 -0.0000 -0.0000 2.9628 13.0827 31.0094 6.8271 -7.1250 0.0000 -0.0000 -21.4820 60.3592 -8.2711 0.0000 0.0000 0.0000 78.9357 7.6773 20.6295 -29.0232 40.0413 -10.7756 0.0000 0.0000 5.3834 -27.0832 24.6796 -12.0524 7.1250 -0.0000 -0.0000 1.4546 -2.6887 1.3852
9.2730 18.2089 -14.6228 7.5021 0.4451 3.7127 0.0000 0.0000 0.0000 -29.5322 6.5438 10.6264 0.0000 -0.0000 -0.0000 0.0026 -4.0571 -2.9493 0.0460 -1.3844 -3.8072 0.0000 0.0000 0.0000 6.3990 20.1541 -24.6419 -0.8671 -5.9373 16.6027 0.0829 -11.8385 -15.6569 -0.2729 3.3605 -9.2840 -8.9802 -2.2438 1.1752 -2.3610 -3.0090 1.5556 2.5674 -1.5904 1.2915 -1.9337 -0.8345 -9.1202 3.2567 -1.4647 18.5403 1.2492 -0.5559 7.2139 0.0000 -0.0000 0.0000 -74.6839 -29.5725 28.0590 24.7987 -35.9976 -8.1713 -0.0000 -0.0000 3.1084 13.0609 31.1479 6.8425 -7.1250 0.0000 -0.0000 -21.6173 60.4817 -8.3895 0.0000 -0.0000 0.0000 78.4208 8.2118 21.2396 -29.6374 40.5805 -11.1730 0.0000 0.0000 5.0347 -27.2087 23.9645 -11.7951 7.1250 -0.0000 -0.0000 1.2780 -3.4301 1.1996
9.2700 18.2045 -14.4939 7.6282 0.7433 3.9673 0.0000 0.0000 0.0000 -29.5991 6.2965 10.9521 0.0000 0.0000 0.0000 0.0026 -4.1529 -3.0112 0.0604 -1.5858 -4.3622 0.0000 0.0000 0.0000 6.1411 20.1363 -24.8123 -0.7942 -5.6885 15.8831 0.0164 -11.5104 -16.1482 -0.3156 3.6115 -9.9861 -8.8132 -2.0797 0.7188 -2.5963 -2.7043 1.9786 2.2056 -1.4690 1.9350 -1.1610 -1.0939 -10.9906 3.1040 -1.9279 19.0571 1.0236 -0.7146 7.7240 0.0000 0.0000 0.0000 -73.9922 -31.9354 29.2002 25.0242 -36.2287 -8.3042 -0.0000 -0.0000 3.0894 13.1334 31.3738 6.9259 -7.1250 0.0000 -0.0000 -21.7265 60.7068 -8.5513 0.0000 0.0000 0.0000 78.3973 9.9420 20.2904 -30.1991 41.0635 -11.5402 0.0000 0.0000 5.5128 -26.4344 24.3434 -11.5812 7.1250 -0.0000 -0.0000 1.8032 -3.1858 1.7011
9.2608 18.1920 -14.3593 8.0928 0.9202 4.1085 0.0000 0.0000 0.0000 -29.9980 6.1988 11.3570 0.0000 -0.0000 -0.0000 0.0010 -4.2761 -3.0330 0.0489 -1.4265 -3.9230 0.0000 0.0000 0.0000 5.6296 20.0129 -24.9165 -0.7584 -5.5619 15.5184 -0.0476 -11.0304 -16.3826 -0.3097 3.5776 -9.8912 -9.3586 -2.3333 0.4028 -2.4853 -3.0240 1.6831 2.6065 -1.6269 1.8758 -1.8749 -1.0075 -10.3983 3.3499 -1.7371 19.3105 1.2456 -0.6566 7.7036 0.0000 0.0000 0.0000 -73.4802 -32.6123 29.5751 25.0944 -36.3004 -8.3457 -0.0000 -0.0000 2.5331 13.1646 31.4968 6.9670 -7.1250 0.0000 -0.0000 -21.7956 60.8275 -8.6429 0.0000 0.0000 0.0000 77.6358 10.4759 21.1722 -30.7094 41.4937 -11.8768 0.0000 0.0000 5.2445 -25.8450 24.7744 -11.4741 7.1250 -0.0000 -0.0000 2.2204 -2.8480 2.1090
9.2492 18.1619 -14.2263 8.0774 1.0125 3.9262 0.0000 0.0000 0.0000 -29.8141 6.3743 12.0551 0.0000 -0.0000 -0.0000 -0.0039 -4.3926 -2.9252 0.0323 -1.1596 -3.1881 0.0000 0.0000 0.0000 5.7747 20.1770 -24.6215 -0.7554 -5.5509 15.4869 -0.1030 -10.6624 -16.6545 -0.2104 2.9535 -8.1493 -9.3767 -2.3332 0.5138 -2.3819 -3.0471 1.5677 2.7316 -1.6297 1.7023 -2.3832 -1.2294 -9.8917 3.6166 -2.0114 19.2807 1.3935 -0.8046 7.6177 0.0000 0.0000 0.0000 -72.9460 -33.7452 30.4454 25.0002 -36.2042 -8.2900 -0.0000 -0.0000 1.7722 13.2412 31.4516 6.9996 -7.1250 0.0000 -0.0000 -21.6769 60.8043 -8.5813 0.0000 0.0000 0.0000 77.0850 11.0470 21.6554 -31.1336 41.8454 -12.1588 0.0000 0.0000 4.0625 -26.0063 24.9493 -11.6286 7.1250 -0.0000 -0.0000 2.1460 -2.6284 2.0468
